<?xml version="1.0" standalone="no"?>
<!DOCTYPE svg PUBLIC "-//W3C//DTD SVG 20010904//EN"
 "http://www.w3.org/TR/2001/REC-SVG-20010904/DTD/svg10.dtd">
<svg version="1.0" xmlns="http://www.w3.org/2000/svg"
 width="64.000000pt" height="64.000000pt" viewBox="0 0 64.000000 64.000000"
 preserveAspectRatio="xMidYMid meet">

<g transform="translate(0.000000,64.000000) scale(0.100000,-0.100000)"
fill="#000000" stroke="none">
<path d="M300 624 c0 -3 -25 -117 -56 -252 -41 -181 -54 -258 -50 -290 7 -51
-16 -60 -32 -13 -9 25 -17 31 -58 37 -59 9 -79 -3 -79 -47 0 -53 22 -59 235
-59 188 0 231 7 198 32 -21 16 -30 119 -10 125 8 3 12 -9 12 -39 0 -24 5 -49
11 -55 6 -6 17 -22 23 -35 26 -52 126 6 126 73 0 17 -25 141 -55 275 -30 135
-55 247 -55 250 0 10 -24 2 -47 -16 -14 -11 -40 -20 -58 -20 -18 0 -44 9 -58
20 -24 19 -47 26 -47 14z m70 -154 c0 -5 -7 -10 -15 -10 -8 0 -15 5 -15 10 0
6 7 10 15 10 8 0 15 -4 15 -10z m100 0 c0 -5 -7 -10 -15 -10 -8 0 -15 5 -15
10 0 6 7 10 15 10 8 0 15 -4 15 -10z m-100 -370 c0 -57 -11 -78 -24 -44 -8 21
-8 89 1 97 17 17 23 2 23 -53z"/>
</g>
</svg>
